<svg width="31" height="31" viewBox="0 0 31 31" fill="none" xmlns="http://www.w3.org/2000/svg">
<path d="M4.24046 14.132C3.87763 14.4953 3.67383 14.9877 3.67383 15.5012C3.67383 16.0146 3.87763 16.5071 4.24046 16.8704L11.5461 24.1799C11.9096 24.5434 12.4026 24.7476 12.9166 24.7476C13.4306 24.7476 13.9236 24.5434 14.287 24.1799C14.6505 23.8164 14.8547 23.3235 14.8547 22.8094C14.8547 22.2954 14.6505 21.8024 14.287 21.439L10.288 17.4387L25.1874 17.4387C25.7013 17.4387 26.1941 17.2346 26.5574 16.8712C26.9208 16.5079 27.1249 16.015 27.1249 15.5012C27.1249 14.9873 26.9208 14.4945 26.5574 14.1312C26.1941 13.7678 25.7013 13.5637 25.1874 13.5637L10.288 13.5637L14.287 9.56469C14.467 9.38472 14.6098 9.17106 14.7072 8.93592C14.8046 8.70077 14.8547 8.44875 14.8547 8.19423C14.8547 7.93971 14.8046 7.68769 14.7072 7.45254C14.6098 7.2174 14.467 7.00374 14.287 6.82377C14.1071 6.6438 13.8934 6.50104 13.6583 6.40364C13.4231 6.30624 13.1711 6.25611 12.9166 6.25611C12.6621 6.25611 12.41 6.30624 12.1749 6.40364C11.9398 6.50104 11.7261 6.6438 11.5461 6.82377L4.24046 14.132Z" fill="white"/>
</svg>
