<svg width="1920" height="440" viewBox="0 0 1920 440" fill="none" xmlns="http://www.w3.org/2000/svg">
<g clip-path="url(#clip0_230_140)">
<rect width="1920" height="219" fill="white"/>
<path d="M839.981 153.596L760.303 221.003L839.981 288.41C842.623 290.609 844.811 293.317 846.417 296.378C848.024 299.44 849.017 302.794 849.341 306.247C849.665 309.7 849.312 313.184 848.303 316.498C847.294 319.812 845.648 322.89 843.462 325.556C841.275 328.221 838.591 330.42 835.563 332.027C832.535 333.634 829.224 334.616 825.82 334.917C822.416 335.218 818.988 334.832 815.732 333.781C812.476 332.73 809.457 331.035 806.85 328.793L703.317 241.194C700.401 238.728 698.055 235.641 696.445 232.152C694.835 228.662 694 224.856 694 221.003C694 217.15 694.835 213.343 696.445 209.854C698.055 206.365 700.401 203.278 703.317 200.811L806.85 113.212C812.132 108.818 818.91 106.72 825.708 107.377C832.506 108.034 838.773 111.392 843.144 116.719C847.515 122.046 849.634 128.911 849.042 135.819C848.449 142.726 845.192 149.116 839.981 153.596ZM1219.6 200.811L1116.07 113.212C1113.46 110.971 1110.44 109.276 1107.19 108.225C1103.93 107.174 1100.5 106.788 1097.1 107.089C1093.7 107.39 1090.38 108.372 1087.36 109.979C1084.33 111.585 1081.64 113.785 1079.46 116.45C1077.27 119.115 1075.63 122.194 1074.62 125.508C1073.61 128.822 1073.25 132.306 1073.58 135.759C1073.9 139.212 1074.9 142.566 1076.5 145.627C1078.11 148.689 1080.3 151.397 1082.94 153.596L1162.62 221.003L1082.94 288.41C1080.3 290.609 1078.11 293.317 1076.5 296.378C1074.9 299.44 1073.9 302.794 1073.58 306.247C1073.25 309.7 1073.61 313.184 1074.62 316.498C1075.63 319.812 1077.27 322.89 1079.46 325.556C1081.64 328.221 1084.33 330.42 1087.36 332.027C1090.38 333.634 1093.7 334.616 1097.1 334.917C1100.5 335.218 1103.93 334.832 1107.19 333.781C1110.44 332.73 1113.46 331.035 1116.07 328.793L1219.6 241.194C1222.52 238.728 1224.86 235.641 1226.47 232.152C1228.08 228.662 1228.92 224.856 1228.92 221.003C1228.92 217.15 1228.08 213.343 1226.47 209.854C1224.86 206.365 1222.52 203.278 1219.6 200.811ZM1039.33 3.58244C1036.13 2.40272 1032.74 1.87363 1029.34 2.02542C1025.94 2.17721 1022.61 3.00689 1019.53 4.46706C1016.45 5.92724 1013.68 7.98931 1011.39 10.5355C1009.09 13.0817 1007.31 16.0621 1006.15 19.3064L868.107 404.741C865.767 411.29 866.084 418.514 868.988 424.826C871.892 431.138 877.146 436.021 883.594 438.401C886.425 439.463 889.42 440.004 892.437 440C897.752 440.001 902.937 438.341 907.29 435.246C911.643 432.151 914.952 427.77 916.768 422.699L1054.81 37.2642C1055.97 34.0202 1056.5 30.5756 1056.35 27.1271C1056.2 23.6786 1055.38 20.2938 1053.94 17.166C1052.5 14.0382 1050.47 11.2287 1047.96 8.89803C1045.46 6.56733 1042.52 4.76108 1039.33 3.58244Z" fill="black"/>
</g>
<g clip-path="url(#clip1_230_140)">
<rect width="1920" height="221" transform="translate(0 219)" fill="black"/>
<path d="M838.981 151.596L759.303 219.003L838.981 286.41C841.623 288.609 843.811 291.317 845.417 294.378C847.024 297.44 848.017 300.794 848.341 304.247C848.665 307.7 848.312 311.184 847.303 314.498C846.294 317.812 844.648 320.89 842.462 323.556C840.275 326.221 837.591 328.42 834.563 330.027C831.535 331.634 828.224 332.616 824.82 332.917C821.416 333.218 817.988 332.832 814.732 331.781C811.476 330.73 808.457 329.035 805.85 326.793L702.317 239.194C699.401 236.728 697.055 233.641 695.445 230.152C693.835 226.662 693 222.856 693 219.003C693 215.15 693.835 211.343 695.445 207.854C697.055 204.365 699.401 201.278 702.317 198.811L805.85 111.212C811.132 106.818 817.91 104.72 824.708 105.377C831.506 106.034 837.773 109.392 842.144 114.719C846.515 120.046 848.634 126.911 848.042 133.819C847.449 140.726 844.192 147.116 838.981 151.596ZM1218.6 198.811L1115.07 111.212C1112.46 108.971 1109.44 107.276 1106.19 106.225C1102.93 105.174 1099.5 104.788 1096.1 105.089C1092.7 105.39 1089.38 106.372 1086.36 107.979C1083.33 109.585 1080.64 111.785 1078.46 114.45C1076.27 117.115 1074.63 120.194 1073.62 123.508C1072.61 126.822 1072.25 130.306 1072.58 133.759C1072.9 137.212 1073.9 140.566 1075.5 143.627C1077.11 146.689 1079.3 149.397 1081.94 151.596L1161.62 219.003L1081.94 286.41C1079.3 288.609 1077.11 291.317 1075.5 294.378C1073.9 297.44 1072.9 300.794 1072.58 304.247C1072.25 307.7 1072.61 311.184 1073.62 314.498C1074.63 317.812 1076.27 320.89 1078.46 323.556C1080.64 326.221 1083.33 328.42 1086.36 330.027C1089.38 331.634 1092.7 332.616 1096.1 332.917C1099.5 333.218 1102.93 332.832 1106.19 331.781C1109.44 330.73 1112.46 329.035 1115.07 326.793L1218.6 239.194C1221.52 236.728 1223.86 233.641 1225.47 230.152C1227.08 226.662 1227.92 222.856 1227.92 219.003C1227.92 215.15 1227.08 211.343 1225.47 207.854C1223.86 204.365 1221.52 201.278 1218.6 198.811ZM1038.33 1.58244C1035.13 0.402716 1031.74 -0.126365 1028.34 0.02542C1024.94 0.177205 1021.61 1.00689 1018.53 2.46706C1015.45 3.92724 1012.68 5.98931 1010.39 8.53548C1008.09 11.0817 1006.31 14.0621 1005.15 17.3064L867.107 402.741C864.767 409.29 865.084 416.514 867.988 422.826C870.892 429.138 876.146 434.021 882.594 436.401C885.425 437.463 888.42 438.004 891.437 438C896.752 438.001 901.937 436.341 906.29 433.246C910.643 430.151 913.952 425.77 915.768 420.699L1053.81 35.2642C1054.97 32.0202 1055.5 28.5756 1055.35 25.1271C1055.2 21.6786 1054.38 18.2938 1052.94 15.166C1051.5 12.0382 1049.47 9.22873 1046.96 6.89803C1044.46 4.56733 1041.52 2.76108 1038.33 1.58244Z" fill="white"/>
</g>
<defs>
<clipPath id="clip0_230_140">
<rect width="1920" height="219" fill="white"/>
</clipPath>
<clipPath id="clip1_230_140">
<rect width="1920" height="221" fill="white" transform="translate(0 219)"/>
</clipPath>
</defs>
</svg>
