<svg width="21" height="16" viewBox="0 0 21 16" fill="none" xmlns="http://www.w3.org/2000/svg">
<path fill-rule="evenodd" clip-rule="evenodd" d="M19.932 1.26725C20.2115 1.55006 20.3685 1.93358 20.3685 2.33347C20.3685 2.73337 20.2115 3.11689 19.932 3.3997L8.75681 14.7034C8.60913 14.8528 8.4338 14.9713 8.24082 15.0522C8.04785 15.1331 7.84102 15.1747 7.63214 15.1747C7.42326 15.1747 7.21643 15.1331 7.02346 15.0522C6.83048 14.9713 6.65515 14.8528 6.50747 14.7034L0.955169 9.08824C0.812769 8.94912 0.699185 8.78271 0.621046 8.59872C0.542906 8.41472 0.501777 8.21683 0.500056 8.01659C0.498336 7.81634 0.53606 7.61776 0.611026 7.43242C0.685992 7.24708 0.7967 7.0787 0.936689 6.9371C1.07668 6.7955 1.24315 6.68352 1.42638 6.60769C1.60961 6.53186 1.80594 6.4937 2.00391 6.49544C2.20187 6.49718 2.39752 6.53879 2.57942 6.61782C2.76132 6.69686 2.92584 6.81175 3.06337 6.95579L7.63164 11.5766L17.8228 1.26725C17.9612 1.12711 18.1256 1.01593 18.3066 0.940085C18.4876 0.864235 18.6815 0.825195 18.8774 0.825195C19.0733 0.825195 19.2672 0.864235 19.4482 0.940085C19.6291 1.01593 19.7935 1.12711 19.932 1.26725Z" fill="#862282"/>
</svg>
