<svg width="451" height="350" viewBox="0 0 451 350" fill="none" xmlns="http://www.w3.org/2000/svg">
<path d="M123.079 121.138L55.9014 175.002L123.079 228.867C125.307 230.624 127.151 232.788 128.506 235.234C129.86 237.68 130.698 240.36 130.971 243.12C131.244 245.879 130.946 248.663 130.095 251.311C129.245 253.959 127.858 256.419 126.014 258.549C124.17 260.679 121.907 262.436 119.354 263.72C116.801 265.004 114.009 265.789 111.14 266.029C108.27 266.27 105.38 265.961 102.634 265.121C99.8894 264.282 97.3442 262.927 95.1458 261.136L7.85508 191.137C5.39659 189.166 3.41855 186.699 2.0611 183.911C0.703651 181.123 0 178.081 0 175.002C0 171.923 0.703651 168.882 2.0611 166.093C3.41855 163.305 5.39659 160.838 7.85508 158.867L95.1458 88.8684C99.599 85.3565 105.314 83.6805 111.046 84.2053C116.777 84.7301 122.061 87.4133 125.746 91.6703C129.431 95.9273 131.218 101.413 130.719 106.933C130.219 112.452 127.473 117.558 123.079 121.138ZM443.145 158.867L355.854 88.8684C353.656 87.0774 351.111 85.7229 348.366 84.8831C345.62 84.0433 342.73 83.7347 339.86 83.9752C336.991 84.2157 334.199 85.0005 331.646 86.2844C329.093 87.5682 326.83 89.3257 324.986 91.4555C323.142 93.5853 321.755 96.0452 320.905 98.6934C320.054 101.342 319.756 104.126 320.029 106.885C320.302 109.644 321.14 112.324 322.494 114.771C323.849 117.217 325.693 119.381 327.921 121.138L395.099 175.002L327.921 228.867C325.693 230.624 323.849 232.788 322.494 235.234C321.14 237.68 320.302 240.36 320.029 243.12C319.756 245.879 320.054 248.663 320.905 251.311C321.755 253.959 323.142 256.419 324.986 258.549C326.83 260.679 329.093 262.436 331.646 263.72C334.199 265.004 336.991 265.789 339.86 266.029C342.73 266.27 345.62 265.961 348.366 265.121C351.111 264.282 353.656 262.927 355.854 261.136L443.145 191.137C445.603 189.166 447.581 186.699 448.939 183.911C450.296 181.123 451 178.081 451 175.002C451 171.923 450.296 168.882 448.939 166.093C447.581 163.305 445.603 160.838 443.145 158.867ZM291.15 1.26451C288.456 0.321805 285.596 -0.100977 282.732 0.0203128C279.868 0.141602 277.058 0.804589 274.46 1.9714C271.863 3.13821 269.53 4.78597 267.595 6.82059C265.659 8.85521 264.159 11.2368 263.181 13.8293L146.793 321.825C144.82 327.058 145.087 332.831 147.536 337.875C149.984 342.918 154.413 346.82 159.85 348.723C162.237 349.571 164.762 350.003 167.306 350C171.787 350.001 176.159 348.674 179.829 346.201C183.499 343.728 186.289 340.227 187.819 336.175L304.207 28.1792C305.187 25.5869 305.626 22.8344 305.5 20.0787C305.374 17.3231 304.685 14.6183 303.473 12.119C302.26 9.61958 300.548 7.37456 298.433 5.51213C296.319 3.64969 293.844 2.20634 291.15 1.26451Z" fill="black"/>
</svg>
