<svg width="201" height="73" viewBox="0 0 201 73" fill="none" xmlns="http://www.w3.org/2000/svg">
<path d="M50.719 37.3785V0H60.769V22.9893C65.7103 17.6484 72.5107 16.1062 79.2107 16.1062C90.4332 16.1062 102.895 22.9741 102.895 37.7963C102.895 39.5665 102.77 41.2683 102.393 42.8713C104.403 35.6311 113.062 32.9569 126.647 32.6606C130.918 32.5238 135.817 32.5238 139.712 32.5238V31.4982C139.712 24.7746 135.055 22.0472 126.898 22.0472C120.868 22.0472 116.471 24.3264 115.969 28.201H105.29C106.429 18.4005 117.853 15.8934 127.786 15.8934C136.697 15.8934 144.494 17.9447 148.011 23.6426L144.36 17.261H156.169L173.379 48.5996L190.59 17.2534H201L169.845 72.7513H158.572L167.533 57.2529L148.02 23.9769C149.108 25.9142 149.695 28.1934 149.695 31.0424V49.7316C149.695 52.3602 149.778 54.9737 150.03 57.3668H140.7C140.446 55.438 140.318 53.4974 140.315 51.5549C135.265 57.1313 129.26 58.8483 120.885 58.8483C108.49 58.8483 101.857 52.9224 101.857 45.971C101.857 44.8314 101.982 43.8133 102.167 42.8941C99.6541 52.3602 90.7766 58.7419 78.993 58.7419C71.7067 58.7419 64.8057 56.3488 60.568 51.6765C60.568 53.4998 60.4424 55.4295 60.233 57.2529H50.3505C50.518 54.2899 50.6855 50.7572 50.6855 47.7943V39.8172H10.2343C10.7786 48.1362 17.085 53.0364 25.7531 53.0364C31.7664 53.0364 37.1012 50.7572 38.8851 45.971H49.2701C47.2601 55.7714 35.7864 59.0762 25.9039 59.0762C7.95625 59.2358 0 50.2178 0 38.1382C0 24.8126 8.22425 16.0302 26.0965 16.0302C40.2335 16.0302 50.6352 22.7614 50.719 37.3481V37.3861V37.3785ZM127.241 38.7688C118.071 39.0271 112.418 40.5389 112.418 45.9862C112.418 49.5189 115.433 53.3555 123.347 53.3555C133.899 53.3555 139.553 48.1134 139.553 39.5741V38.5864C135.784 38.5864 131.261 38.632 127.124 38.7536H127.225L127.241 38.7688ZM76.4889 53.0136C85.7851 53.0136 92.2004 46.8902 92.2004 37.6672C92.2004 28.4441 85.7684 22.3207 76.3465 22.3207C67.0502 22.3207 60.5177 28.4441 60.5177 37.6672C60.5177 46.8902 66.9246 53.0136 76.2209 53.0136H76.4721H76.4889ZM40.0576 33.9141C39.6891 25.3672 32.9054 22.1688 25.6108 22.1688C17.7048 22.1688 11.4235 25.7699 10.4101 33.9141H40.0576Z" fill="white"/>
</svg>
