<svg width="261" height="76" viewBox="0 0 261 76" fill="none" xmlns="http://www.w3.org/2000/svg">
<path d="M21.3476 17.7921H37.1381V35.3261C31.8746 36.0487 27.84 36.4174 23.4139 36.4174C6.10088 36.4174 0 29.6928 0 18.6253C0 6.72457 8.46075 0 25.3279 0C27.4594 0 31.494 0.103229 36.5291 0.619369V11.8417H32.8751L30.8089 7.5504C28.8187 3.47289 26.4589 1.45257 22.7179 1.45257C16.2364 1.45257 12.7999 7.39555 12.7999 18.5221C12.7999 29.6928 14.1701 34.9648 22.6309 34.9648C23.7836 34.9648 25.143 34.8616 26.448 34.6109V21.5673L21.3476 19.1857V17.7921ZM36.8336 64.8493C36.8336 71.8836 29.754 75.9169 17.2369 75.9169C13.8113 75.9169 8.77612 75.5629 4.0455 75.0394V61.288H7.71037L9.23287 64.5397C12.6585 72.0384 15.1054 74.5159 19.4554 74.5159C24.0338 74.5159 27.3071 71.7804 27.3071 68.16C27.3071 65.218 25.2518 63.1461 20.8365 61.5387L13.2022 58.7515C7.31887 56.6353 4.12162 53.3247 4.12162 49.2914C4.12162 43.1862 11.5166 39.5142 23.6531 39.5142C26.3936 39.5142 29.6017 39.6764 34.7021 40.141V51.356H31.0373L28.9927 47.072C26.9265 42.5152 24.7189 40.8636 20.6842 40.8636C16.1711 40.8636 13.5068 42.8249 13.5068 45.671C13.5068 48.2001 15.573 50.014 19.6076 51.5624L27.3071 54.5044C33.7886 56.9893 36.8336 60.2999 36.8336 64.8493ZM70.557 72.9749L72.0795 74.5307V75.3122H60.4215L59.8778 72.3113C58.6598 74.5823 55.4516 75.9316 51.33 75.9316C45.2291 75.9316 41.412 73.3435 41.412 69.1038C41.412 64.9673 44.8376 62.2244 55.3646 59.4372L59.8669 58.2501V54.3791C59.8669 50.9652 58.9425 49.5716 56.1259 49.5716C53.8421 49.5716 52.548 50.3974 50.3295 54.1652L47.8174 58.3902H44.3917V49.955C48.894 49.026 53.3963 48.4066 57.2786 48.4066C65.8916 48.4066 70.557 51.1938 70.557 56.2667V72.9749ZM74.9614 22.6586C74.9614 31.4477 68.034 36.4174 59.0947 36.4174C50.1772 36.4174 43.2499 31.4477 43.2499 22.6586C43.2499 13.8621 50.1772 8.89973 59.1165 8.89973C68.034 8.89973 74.9614 13.8621 74.9614 22.6586ZM59.8778 68.6319V59.6879L58.4314 60.1009C53.9291 61.347 52.2435 64.1341 52.2435 68.219C52.2435 71.2716 53.3201 73.0265 55.8214 73.0265C58.3335 73.0265 59.8778 71.3675 59.8778 68.6319ZM63.7601 22.6586C63.7601 12.7265 62.5421 10.0942 59.1165 10.0942C55.6909 10.0942 54.462 12.7265 54.462 22.6586C54.462 32.5832 55.6909 35.2229 59.1165 35.2229C62.5421 35.2229 63.7601 32.5832 63.7601 22.6586ZM102.051 68.8826L103.421 69.3545C100.985 74.1178 97.8641 75.9169 91.8285 75.9169C81.9975 75.9169 76.5056 70.9103 76.5056 62.1654C76.5056 53.4279 82.911 48.4066 93.3619 48.4066C96.1676 48.4066 99.9195 48.7163 103.117 49.5863V58.3828H99.5389L98.1034 55.0722C96.1894 50.6776 95.1345 49.5421 93.2205 49.5421C90.1646 49.5421 87.7286 52.2334 87.7286 62.4751C87.7286 70.6891 89.5556 73.6901 94.1992 73.6901C97.3204 73.6975 99.9847 72.3555 102.051 68.8826ZM93.5794 35.7906H79.8443V35.0238L81.3776 33.468V4.6084L79.8443 3.05997V2.27839L92.0569 1.65903V33.4606L93.5794 35.0164V35.7906ZM112.35 36.4174C103.954 36.4174 98.919 31.2412 98.919 22.4005C98.919 13.6114 104.172 8.90711 112.263 8.90711C116.384 8.90711 118.668 9.991 119.658 12.1588V4.6084L118.124 3.05997V2.27839L130.337 1.65903V33.4606L131.859 35.0164V35.7833H121.028L120.19 31.8532C118.983 35.2229 116.7 36.4174 112.35 36.4174ZM139.113 72.9749L140.635 74.5307V75.3122H126.911V74.5307L128.434 72.9749V54.3569C128.434 52.1375 127.444 50.7956 125.073 50.7956C122.246 50.7956 120.19 52.403 120.19 55.5515V72.9749L121.724 74.5307V75.3122H107.989V74.5307L109.511 72.9749V44.1152L107.989 42.5668V41.7926L120.19 41.1733V51.8721C121.572 49.6527 124.693 48.414 129.108 48.414C135.372 48.414 139.102 51.1053 139.102 56.3257L139.113 72.9749ZM110.142 22.4963C110.142 31.809 111.36 34.6478 114.72 34.6478C118.907 34.6478 119.668 30.5629 119.668 22.3931C119.668 14.4814 118.831 10.5514 114.786 10.5514C111.36 10.5514 110.142 13.3459 110.142 22.4963ZM186.713 33.4606L188.235 35.0164V35.7833H174.511V35.0164L176.034 33.4606V14.275C176.034 12.4169 175.12 11.274 172.978 11.274C170.324 11.274 168.182 12.8888 168.182 15.9782V33.4606L169.704 35.0164V35.7833H155.98V35.0164L157.503 33.4606V14.275C157.503 12.4169 156.589 11.274 154.458 11.274C151.793 11.274 149.651 12.8888 149.651 15.9782V33.4606L151.184 35.0164V35.7833H137.449V35.0164L138.972 33.4606V12.4169L137.449 11.1708V10.4039L148.433 9.5191H149.346L149.651 12.4169C150.945 10.1385 154.153 8.89973 158.503 8.89973C163.147 8.89973 166.203 10.4482 167.573 13.2427C168.715 10.5514 172.303 8.89973 176.882 8.89973C182.896 8.89973 186.713 11.591 186.713 16.8041V33.4606ZM172.456 67.7029C172.456 72.1933 168.182 75.9169 157.894 75.9169C155.23 75.9169 151.641 75.7104 146.073 75.0394V65.4245H149.194L150.184 67.4964C152.62 72.7684 154.98 74.7371 158.721 74.7371C162.233 74.7371 164.517 73.0265 164.517 70.3868C164.517 68.219 162.918 66.7222 159.112 65.3213L152.555 62.9396C148.368 61.3912 146.073 58.9653 146.073 55.9644C146.073 51.2601 151.5 48.414 160.482 48.414C163.081 48.414 166.431 48.6647 170.096 49.1882V56.7386H166.975L165.365 53.9883C163.538 50.6776 161.787 49.6011 158.895 49.6011C155.773 49.6011 153.936 50.8398 153.936 52.9118C153.936 54.6666 155.469 55.8538 159.199 57.299L165.67 59.7838C170.085 61.4944 172.456 63.9203 172.456 67.7029ZM221.807 33.4606L223.329 35.0164V35.7833H211.66L211.138 32.7823C209.92 35.0607 206.712 36.4026 202.59 36.4026C196.49 36.4026 192.683 33.8219 192.683 29.5748C192.683 25.4383 196.109 22.7028 206.636 19.9083L211.127 18.7285V14.8501C211.127 11.4362 210.214 10.0426 207.397 10.0426C205.102 10.0426 203.819 10.8758 201.601 14.6436L199.089 18.8834H195.641V10.4629C200.154 9.52648 204.646 8.90711 208.528 8.90711C217.141 8.90711 221.807 11.7016 221.807 16.7672V33.4606ZM211.127 29.1177V20.1737L209.681 20.5866C205.189 21.8254 203.515 24.6199 203.515 28.7048C203.515 31.7574 204.58 33.5196 207.093 33.5196C209.594 33.5196 211.127 31.8606 211.127 29.1177ZM261 35.0164V35.7833H247.265V35.0164L248.798 33.4606V14.8427C248.798 12.6159 247.809 11.274 245.438 11.274C242.61 11.274 240.555 12.8888 240.555 16.0372V33.4606L242.077 35.0164V35.7833H228.353V35.0164L229.876 33.4606V12.4169L228.353 11.1708V10.4039L239.337 9.5191H240.25L240.555 12.4169C241.849 10.1385 244.981 8.89973 249.473 8.89973C255.726 8.89973 259.456 11.591 259.456 16.8041V33.4606L261 35.0164Z" fill="white"/>
</svg>
