<svg width="124" height="125" viewBox="0 0 124 125" fill="none" xmlns="http://www.w3.org/2000/svg">
<path d="M42.5694 3.40936C29.7803 7.77117 18.7509 16.05 11.1013 27.0299C3.45182 38.0098 -0.414649 51.112 0.0698603 64.4119C0.55437 77.7118 5.36432 90.5085 13.7932 100.922C22.2221 111.336 33.8256 118.818 46.8994 122.269C57.4987 124.958 68.6035 125.076 79.2594 122.613C88.9126 120.482 97.8372 115.922 105.159 109.38C112.78 102.364 118.312 93.4388 121.159 83.5635C124.254 72.8244 124.804 61.5311 122.769 50.5502H63.2494V74.8235H97.7194C97.0305 78.695 95.5542 82.39 93.3789 85.6874C91.2036 88.9848 88.374 91.8169 85.0594 94.0142C80.8508 96.7525 76.1057 98.5944 71.1294 99.4213C66.1389 100.334 61.02 100.334 56.0294 99.4213C50.971 98.3943 46.1858 96.3418 41.9794 93.3948C35.2209 88.6914 30.1462 82.0094 27.4794 74.3025C24.7683 66.4511 24.7683 57.9395 27.4794 50.0881C29.3777 44.5848 32.5158 39.574 36.6594 35.4297C41.4013 30.6001 47.4048 27.1479 54.011 25.4518C60.6172 23.7557 67.571 23.8813 74.1094 25.8148C79.2174 27.3556 83.8884 30.0489 87.7494 33.6798C91.6361 29.8784 95.5161 26.0671 99.3894 22.246C101.389 20.1913 103.569 18.2349 105.539 16.131C99.6448 10.7387 92.726 6.54262 85.1794 3.78294C71.4365 -1.12295 56.3992 -1.25479 42.5694 3.40936Z" fill="white"/>
<path d="M42.5702 3.40925C56.3989 -1.25806 71.4361 -1.12969 85.1802 3.77301C92.7281 6.55143 99.6438 10.7677 105.53 16.18C103.53 18.2839 101.42 20.2502 99.3802 22.2951C95.5002 26.103 91.6236 29.8979 87.7502 33.6797C83.8891 30.0488 79.2182 27.3554 74.1102 25.8147C67.574 23.8744 60.6204 23.7415 54.0124 25.4307C47.4044 27.1198 41.3974 30.5657 36.6502 35.3903C32.5066 39.5345 29.3685 44.5453 27.4702 50.0487L6.74023 34.2695C14.1603 19.8035 27.0077 8.73802 42.5702 3.40925Z" fill="#E33629"/>
<path d="M1.23997 49.9012C2.35337 44.4721 4.20323 39.2146 6.73997 34.2695L27.47 50.088C24.7589 57.9394 24.7589 66.4509 27.47 74.3024C20.5633 79.5457 13.6533 84.8152 6.73997 90.111C0.391478 77.6874 -1.5447 63.5323 1.23997 49.9012Z" fill="#F8BD00"/>
<path d="M63.2505 50.54H122.771C124.805 61.521 124.255 72.8142 121.161 83.5534C118.313 93.4286 112.781 102.354 105.161 109.37C98.4705 104.238 91.7505 99.1457 85.0605 94.0138C88.3773 91.8144 91.2082 88.9792 93.3836 85.6782C95.559 82.3773 97.0341 78.6785 97.7205 74.8036H63.2505C63.2405 66.7223 63.2505 58.6312 63.2505 50.54Z" fill="#587DBD"/>
<path d="M6.73047 90.1114C13.6438 84.868 20.5538 79.5985 27.4605 74.3027C30.1325 82.0124 35.2145 88.6946 41.9805 93.395C46.2 96.3283 50.9954 98.3641 56.0605 99.3724C61.051 100.285 66.1699 100.285 71.1605 99.3724C76.1367 98.5455 80.8818 96.7036 85.0905 93.9652C91.7805 99.0971 98.5005 104.19 105.19 109.322C97.8694 115.867 88.9447 120.43 79.2905 122.564C68.6346 125.027 57.5297 124.909 46.9305 122.22C38.5475 120.02 30.7172 116.141 23.9305 110.826C16.7477 105.218 10.8808 98.1526 6.73047 90.1114Z" fill="#319F43"/>
</svg>
