<svg width="25" height="28" viewBox="0 0 25 28" fill="none" xmlns="http://www.w3.org/2000/svg">
<g clip-path="url(#clip0_273_33)">
<path d="M20.6304 2.60142C19.3616 1.18151 17.068 0.572754 14.1338 0.572754H5.61791C5.32759 0.572764 5.04681 0.674454 4.82603 0.859541C4.60525 1.04463 4.45896 1.30097 4.41346 1.58248L0.8676 23.6623C0.79712 24.0977 1.14051 24.492 1.58998 24.492H6.84739L8.16776 16.2694L8.12678 16.5269C8.22084 15.9457 8.72714 15.517 9.32667 15.517H11.825C16.7329 15.517 20.5759 13.5598 21.6985 7.89789C21.7318 7.73044 21.7607 7.56745 21.7856 7.40822C21.6439 7.33456 21.6439 7.33456 21.7856 7.40822C22.1199 5.31555 21.7834 3.89107 20.6304 2.60142Z" fill="#27346A"/>
<path d="M10.1794 6.65437C10.3232 6.58718 10.4804 6.55235 10.6396 6.55245H17.3159C18.1065 6.55245 18.8439 6.60296 19.5177 6.70944C19.7063 6.73896 19.8938 6.7742 20.0802 6.81512C20.3443 6.87234 20.6053 6.94237 20.8624 7.02495C21.1937 7.13357 21.5022 7.26008 21.7857 7.40822C22.1199 5.31474 21.7834 3.89107 20.6304 2.60142C19.3609 1.18151 17.068 0.572754 14.1338 0.572754H5.61718C5.01755 0.572754 4.50743 1.00136 4.41346 1.58248L0.867601 23.6615C0.79712 24.0976 1.14051 24.4914 1.58925 24.4914H6.84739L9.58674 7.43576C9.61367 7.26812 9.68169 7.10941 9.78494 6.9733C9.88819 6.83718 10.0236 6.72773 10.1794 6.65437Z" fill="#27346A"/>
<path d="M21.6988 7.89836C20.5762 13.5594 16.7333 15.5175 11.8253 15.5175H9.32625C8.72671 15.5175 8.22033 15.9461 8.12717 16.5274L6.48455 26.7512C6.42318 27.1322 6.72331 27.4775 7.11596 27.4775H11.5478C11.8017 27.4774 12.0472 27.3884 12.2402 27.2265C12.4332 27.0646 12.5611 26.8404 12.6007 26.5942L12.6439 26.3724L13.4792 21.1748L13.533 20.8876C13.5727 20.6414 13.7005 20.4172 13.8935 20.2553C14.0865 20.0934 14.332 20.0044 14.5858 20.0043H15.2491C19.5423 20.0043 22.904 18.2918 23.8863 13.3392C24.2964 11.2695 24.0842 9.54151 22.9995 8.32776C22.6705 7.96013 22.2619 7.65652 21.7859 7.40869C21.7602 7.56872 21.7322 7.7309 21.6988 7.89836Z" fill="#2790C3"/>
<path d="M20.6112 6.94822C20.4362 6.89804 20.2595 6.85361 20.0814 6.81501C19.895 6.77476 19.7074 6.73976 19.5189 6.71005C18.8444 6.60285 18.1075 6.55225 17.3162 6.55225H10.6407C10.4814 6.55189 10.3241 6.58702 10.1806 6.65497C10.0245 6.72811 9.88901 6.83749 9.78571 6.97365C9.68242 7.1098 9.61449 7.26863 9.5878 7.43636L8.16891 16.2693L8.12793 16.5268C8.22127 15.9456 8.72756 15.5169 9.32718 15.5169H11.8262C16.7342 15.5169 20.5771 13.5596 21.6996 7.89778C21.7331 7.73033 21.7611 7.56806 21.7869 7.40811C21.5026 7.26078 21.1949 7.13346 20.8635 7.02555C20.7799 6.99834 20.6958 6.97256 20.6113 6.94822" fill="#1F264F"/>
</g>
<defs>
<clipPath id="clip0_273_33">
<rect width="23.3113" height="27" fill="white" transform="translate(0.855469 0.5)"/>
</clipPath>
</defs>
</svg>
