<svg width="123" height="33" viewBox="0 0 123 33" fill="none" xmlns="http://www.w3.org/2000/svg">
<path d="M2.16309 11.1599V8.53493H14.5307V11.1599H9.92045V23.5938H6.77339V11.1599H2.16309ZM19.641 17.0643V23.5938H16.5087V8.53493H19.5528V14.2923H19.6852C19.9401 13.6256 20.3518 13.1036 20.9204 12.7261C21.4891 12.3437 22.2023 12.1526 23.0602 12.1526C23.8445 12.1526 24.5283 12.3241 25.1116 12.6673C25.6999 13.0055 26.1557 13.4933 26.4793 14.1305C26.8077 14.7629 26.9695 15.5202 26.9646 16.4026V23.5938H23.8322V16.9614C23.8371 16.2653 23.6606 15.7237 23.3028 15.3364C22.9499 14.9491 22.4548 14.7555 21.8175 14.7555C21.391 14.7555 21.0136 14.8462 20.6852 15.0276C20.3616 15.2089 20.1067 15.4737 19.9204 15.8217C19.7391 16.1648 19.6459 16.579 19.641 17.0643ZM29.4296 23.5938V12.2996H32.562V23.5938H29.4296ZM31.0032 10.8437C30.5375 10.8437 30.138 10.6893 29.8046 10.3805C29.4762 10.0668 29.312 9.69179 29.312 9.25551C29.312 8.82414 29.4762 8.45404 29.8046 8.14522C30.138 7.83149 30.5375 7.67463 31.0032 7.67463C31.4689 7.67463 31.8659 7.83149 32.1943 8.14522C32.5277 8.45404 32.6943 8.82414 32.6943 9.25551C32.6943 9.69179 32.5277 10.0668 32.1943 10.3805C31.8659 10.6893 31.4689 10.8437 31.0032 10.8437ZM38.2035 17.0643V23.5938H35.0712V12.2996H38.0565V14.2923H38.1888C38.4388 13.6354 38.8579 13.1158 39.4462 12.7335C40.0344 12.3462 40.7477 12.1526 41.5859 12.1526C42.3702 12.1526 43.054 12.3241 43.6374 12.6673C44.2207 13.0104 44.6741 13.5006 44.9977 14.1379C45.3212 14.7702 45.4829 15.5251 45.4829 16.4026V23.5938H42.3506V16.9614C42.3555 16.2702 42.179 15.731 41.8212 15.3437C41.4633 14.9516 40.9707 14.7555 40.3432 14.7555C39.9217 14.7555 39.5491 14.8462 39.2256 15.0276C38.907 15.2089 38.657 15.4737 38.4756 15.8217C38.2991 16.1648 38.2084 16.579 38.2035 17.0643ZM48.0105 23.5938V8.53493H51.1943V15.1746H51.3929L56.812 8.53493H60.6282L55.0399 15.2776L60.6943 23.5938H56.8855L52.7605 17.4026L51.1943 19.3143V23.5938H48.0105ZM62.2863 23.5938V8.53493H72.4333V11.1599H65.4701V14.7482H71.9113V17.3732H65.4701V20.9687H72.4627V23.5938H62.2863ZM74.9646 23.5938V8.53493H80.9057C82.043 8.53493 83.0136 8.73836 83.8175 9.14522C84.6263 9.54718 85.2415 10.1183 85.6631 10.8585C86.0896 11.5937 86.3028 12.4589 86.3028 13.454C86.3028 14.454 86.0871 15.3143 85.6557 16.0349C85.2244 16.7506 84.5994 17.2996 83.7807 17.682C82.967 18.0643 81.9817 18.2555 80.8249 18.2555H76.8469V15.6967H80.3102C80.918 15.6967 81.4229 15.6134 81.8249 15.4467C82.2268 15.28 82.5258 15.03 82.7219 14.6967C82.9229 14.3634 83.0234 13.9491 83.0234 13.454C83.0234 12.954 82.9229 12.5325 82.7219 12.1893C82.5258 11.8462 82.2244 11.5864 81.8175 11.4099C81.4156 11.2286 80.9082 11.1379 80.2955 11.1379H78.1484V23.5938H74.9646ZM83.0969 16.7408L86.8396 23.5938H83.3249L79.6631 16.7408H83.0969Z" fill="black"/>
<rect x="3.80762" y="26.3726" width="82.644" height="2.48536" fill="black"/>
<g clip-path="url(#clip0_257_9)">
<path d="M103.538 9.38502L106.288 14.1424H106.406L109.185 9.38502H113.259L108.715 16.9144L113.406 24.4438H109.23L106.406 19.635H106.288L103.465 24.4438H99.3178L103.987 16.9144L99.4354 9.38502H103.538Z" fill="black"/>
</g>
<rect x="91.5555" y="5.73616" width="29.6065" height="21.6656" stroke="black" stroke-width="2.91176"/>
<path d="M95.421 0.404412H117.454V32.5956H95.421V0.404412Z" stroke="#862282" stroke-width="0.808823"/>
<defs>
<clipPath id="clip0_257_9">
<rect x="90.0996" y="4.28027" width="32.5183" height="24.5774" fill="white"/>
</clipPath>
</defs>
</svg>
